<svg width="20" height="24" viewBox="0 0 20 24" fill="none" xmlns="http://www.w3.org/2000/svg">
<path fill-rule="evenodd" clip-rule="evenodd" d="M18.4211 4.46203H15.1474C14.7803 1.90142 12.5868 0 10 0C7.41321 0 5.21974 1.90142 4.85263 4.46203H1.57895C0.706919 4.46203 0 5.16895 0 6.04098V21.8305C0 22.7025 0.706919 23.4094 1.57895 23.4094H18.4211C19.2931 23.4094 20 22.7025 20 21.8305V6.04098C20 5.16895 19.2931 4.46203 18.4211 4.46203ZM10 1.56728C11.6763 1.67746 13.0974 2.84057 13.5368 4.46202H6.46316C6.90258 2.84057 8.32369 1.67746 10 1.56728ZM18.421 21.8305H1.57893V6.041H4.73682V7.61995C4.73682 8.05596 5.09028 8.40942 5.5263 8.40942C5.96231 8.40942 6.31577 8.05596 6.31577 7.61995V6.041H13.6842V7.61995C13.6842 8.05596 14.0377 8.40942 14.4737 8.40942C14.9097 8.40942 15.2631 8.05596 15.2631 7.61995V6.041H18.421V21.8305Z" fill="#535C65"/>
</svg>
